<svg width="48" height="48" viewBox="0 0 48 48" fill="none" xmlns="http://www.w3.org/2000/svg">
<path d="M34 0H14C6.26801 0 0 6.26801 0 14V34C0 41.732 6.26801 48 14 48H34C41.732 48 48 41.732 48 34V14C48 6.26801 41.732 0 34 0Z" fill="url(#paint0_linear_0_1)"/>
<path d="M18.6933 18.469C17.5217 17.2975 17.5217 15.398 18.6933 14.2264L21.6159 11.3038C22.7874 10.1322 24.6869 10.1322 25.8585 11.3038L35.9464 21.3916C37.1179 22.5632 37.1179 24.4627 35.9463 25.6343L33.0238 28.5569C31.8522 29.7284 29.9527 29.7284 28.7811 28.5569L18.6933 18.469Z" fill="white"/>
<path d="M15.3162 20.2092C14.6687 19.5617 13.6189 19.5616 12.9714 20.2091C11.6762 21.5041 11.6762 23.6034 12.9714 24.8984L15.3163 27.2447L12.9714 29.5894C11.6762 30.8844 11.6762 32.9837 12.9714 34.2787C14.2665 35.5738 16.366 35.5738 17.6612 34.2787L20.0061 31.9341L22.351 34.2787C23.6461 35.5738 25.7456 35.5738 27.0408 34.2787C27.6883 33.6313 27.6883 32.5815 27.0409 31.934L15.3162 20.2092Z" fill="white"/>
<defs>
<linearGradient id="paint0_linear_0_1" x1="-17.1312" y1="24.3574" x2="23.8577" y2="67.0939" gradientUnits="userSpaceOnUse">
<stop stop-color="#8A4AE3"/>
<stop offset="1" stop-color="#4852B1"/>
</linearGradient>
</defs>
</svg>
